<svg xmlns="http://www.w3.org/2000/svg" viewBox="0 0 32 32">
  <rect width="32" height="32" rx="8" fill="#25D366" />
  <path fill="#fff" d="M16 6a10 10 0 0 0-8.6 15l-1.3 4.7 4.8-1.3A10 10 0 1 0 16 6Zm5.8 14.2c-.2.7-1.4 1.3-2 1.4-.5.1-1.2.1-1.9-.1-.4-.1-1-.3-1.7-.6-3-1.3-4.9-4.3-5-4.5-.2-.2-1.2-1.6-1.2-3 0-1.4.7-2.1 1-2.4.2-.3.5-.3.7-.3h.5c.2 0 .4 0 .6.5.2.5.7 1.8.8 1.9.1.1.1.3 0 .5-.1.2-.2.4-.3.5l-.4.5c-.2.1-.3.3-.1.6.2.3.8 1.3 1.7 2.1 1.2 1 2.1 1.4 2.4 1.5.3.1.5.1.6-.1l.9-1c.2-.2.4-.2.6-.1l1.8.9c.2.1.4.2.4.3.1.1.1.6-.1 1.3Z"/>
</svg>
